<mxfile host="app.diagrams.net" agent="Mozilla/5.0 (Windows NT 10.0; Win64; x64) AppleWebKit/537.36 (KHTML, like Gecko) Chrome/130.0.0.0 Safari/537.36" version="24.8.4">
  <diagram name="Page-1" id="im0vnEayekAGsjpZ4NBu">
    <mxGraphModel dx="1221" dy="759" grid="1" gridSize="10" guides="1" tooltips="1" connect="1" arrows="1" fold="1" page="1" pageScale="1" pageWidth="850" pageHeight="1100" background="none" math="0" shadow="0">
      <root>
        <mxCell id="0" />
        <mxCell id="1" parent="0" />
        <mxCell id="pD6L-KKbO10ma1tO-84G-1" value="" style="ellipse;whiteSpace=wrap;html=1;aspect=fixed;fillColor=#FF6666;" parent="1" vertex="1">
          <mxGeometry x="260" y="150" width="80" height="80" as="geometry" />
        </mxCell>
        <mxCell id="pD6L-KKbO10ma1tO-84G-2" value="" style="ellipse;whiteSpace=wrap;html=1;aspect=fixed;fillColor=#FF6666;" parent="1" vertex="1">
          <mxGeometry x="560" y="150" width="80" height="80" as="geometry" />
        </mxCell>
        <mxCell id="pD6L-KKbO10ma1tO-84G-3" value="" style="ellipse;whiteSpace=wrap;html=1;aspect=fixed;fillColor=#FF6666;" parent="1" vertex="1">
          <mxGeometry x="260" y="400" width="80" height="80" as="geometry" />
        </mxCell>
        <mxCell id="pD6L-KKbO10ma1tO-84G-14" style="edgeStyle=orthogonalEdgeStyle;rounded=0;orthogonalLoop=1;jettySize=auto;html=1;exitX=0;exitY=1;exitDx=0;exitDy=0;entryX=1;entryY=1;entryDx=0;entryDy=0;strokeColor=#3399FF;strokeWidth=2;" parent="1" source="pD6L-KKbO10ma1tO-84G-4" target="pD6L-KKbO10ma1tO-84G-3" edge="1">
          <mxGeometry relative="1" as="geometry" />
        </mxCell>
        <mxCell id="pD6L-KKbO10ma1tO-84G-4" value="" style="ellipse;whiteSpace=wrap;html=1;aspect=fixed;fillColor=#FF6666;" parent="1" vertex="1">
          <mxGeometry x="560" y="400" width="80" height="80" as="geometry" />
        </mxCell>
        <mxCell id="pD6L-KKbO10ma1tO-84G-6" value="" style="endArrow=classic;html=1;rounded=0;exitX=1;exitY=0;exitDx=0;exitDy=0;strokeColor=#3399FF;strokeWidth=2;entryX=0;entryY=0;entryDx=0;entryDy=0;" parent="1" source="pD6L-KKbO10ma1tO-84G-1" target="pD6L-KKbO10ma1tO-84G-2" edge="1">
          <mxGeometry width="50" height="50" relative="1" as="geometry">
            <mxPoint x="400" y="420" as="sourcePoint" />
            <mxPoint x="450" y="370" as="targetPoint" />
          </mxGeometry>
        </mxCell>
        <mxCell id="pD6L-KKbO10ma1tO-84G-8" value="" style="endArrow=classic;html=1;rounded=0;strokeColor=#3399FF;strokeWidth=2;entryX=0;entryY=0;entryDx=0;entryDy=0;" parent="1" source="pD6L-KKbO10ma1tO-84G-1" target="pD6L-KKbO10ma1tO-84G-4" edge="1">
          <mxGeometry width="50" height="50" relative="1" as="geometry">
            <mxPoint x="338" y="172" as="sourcePoint" />
            <mxPoint x="550" y="200" as="targetPoint" />
          </mxGeometry>
        </mxCell>
        <mxCell id="pD6L-KKbO10ma1tO-84G-9" value="" style="endArrow=classic;html=1;rounded=0;strokeColor=#3399FF;strokeWidth=2;entryX=0.5;entryY=0;entryDx=0;entryDy=0;exitX=0.5;exitY=1;exitDx=0;exitDy=0;" parent="1" source="pD6L-KKbO10ma1tO-84G-1" target="pD6L-KKbO10ma1tO-84G-3" edge="1">
          <mxGeometry width="50" height="50" relative="1" as="geometry">
            <mxPoint x="350" y="201" as="sourcePoint" />
            <mxPoint x="572" y="207" as="targetPoint" />
          </mxGeometry>
        </mxCell>
        <mxCell id="pD6L-KKbO10ma1tO-84G-11" value="" style="endArrow=classic;html=1;rounded=0;exitX=0.988;exitY=0.421;exitDx=0;exitDy=0;exitPerimeter=0;strokeColor=#3399FF;strokeWidth=2;" parent="1" source="pD6L-KKbO10ma1tO-84G-3" target="pD6L-KKbO10ma1tO-84G-2" edge="1">
          <mxGeometry width="50" height="50" relative="1" as="geometry">
            <mxPoint x="390" y="400" as="sourcePoint" />
            <mxPoint x="440" y="350" as="targetPoint" />
          </mxGeometry>
        </mxCell>
        <mxCell id="pD6L-KKbO10ma1tO-84G-12" value="" style="endArrow=classic;html=1;rounded=0;exitX=1;exitY=0.5;exitDx=0;exitDy=0;entryX=0;entryY=0.5;entryDx=0;entryDy=0;strokeColor=#3399FF;strokeWidth=2;" parent="1" source="pD6L-KKbO10ma1tO-84G-3" target="pD6L-KKbO10ma1tO-84G-4" edge="1">
          <mxGeometry width="50" height="50" relative="1" as="geometry">
            <mxPoint x="390" y="400" as="sourcePoint" />
            <mxPoint x="440" y="350" as="targetPoint" />
          </mxGeometry>
        </mxCell>
        <mxCell id="pD6L-KKbO10ma1tO-84G-16" value="" style="endArrow=classic;html=1;rounded=0;entryX=0.963;entryY=0.621;entryDx=0;entryDy=0;entryPerimeter=0;exitX=0.013;exitY=0.621;exitDx=0;exitDy=0;exitPerimeter=0;strokeColor=#3399FF;strokeWidth=2;" parent="1" source="pD6L-KKbO10ma1tO-84G-2" target="pD6L-KKbO10ma1tO-84G-1" edge="1">
          <mxGeometry width="50" height="50" relative="1" as="geometry">
            <mxPoint x="390" y="400" as="sourcePoint" />
            <mxPoint x="440" y="350" as="targetPoint" />
          </mxGeometry>
        </mxCell>
        <mxCell id="pD6L-KKbO10ma1tO-84G-17" value="" style="endArrow=classic;html=1;rounded=0;exitX=0.5;exitY=1;exitDx=0;exitDy=0;entryX=0.5;entryY=0;entryDx=0;entryDy=0;strokeColor=#3399FF;strokeWidth=2;" parent="1" source="pD6L-KKbO10ma1tO-84G-2" target="pD6L-KKbO10ma1tO-84G-4" edge="1">
          <mxGeometry width="50" height="50" relative="1" as="geometry">
            <mxPoint x="390" y="400" as="sourcePoint" />
            <mxPoint x="440" y="350" as="targetPoint" />
          </mxGeometry>
        </mxCell>
        <mxCell id="pD6L-KKbO10ma1tO-84G-18" value="" style="endArrow=classic;html=1;rounded=0;exitX=0.004;exitY=0.596;exitDx=0;exitDy=0;exitPerimeter=0;entryX=1;entryY=0;entryDx=0;entryDy=0;strokeColor=#3399FF;strokeWidth=2;" parent="1" source="pD6L-KKbO10ma1tO-84G-2" target="pD6L-KKbO10ma1tO-84G-3" edge="1">
          <mxGeometry width="50" height="50" relative="1" as="geometry">
            <mxPoint x="390" y="400" as="sourcePoint" />
            <mxPoint x="440" y="350" as="targetPoint" />
          </mxGeometry>
        </mxCell>
        <mxCell id="pD6L-KKbO10ma1tO-84G-19" value="&lt;b&gt;&lt;font style=&quot;font-size: 18px;&quot;&gt;Page A&lt;/font&gt;&lt;/b&gt;" style="text;html=1;align=center;verticalAlign=middle;whiteSpace=wrap;rounded=0;" parent="1" vertex="1">
          <mxGeometry x="265" y="176" width="70" height="30" as="geometry" />
        </mxCell>
        <mxCell id="pD6L-KKbO10ma1tO-84G-20" value="&lt;b&gt;&lt;font style=&quot;font-size: 18px;&quot;&gt;Page B&lt;/font&gt;&lt;/b&gt;" style="text;html=1;align=center;verticalAlign=middle;whiteSpace=wrap;rounded=0;" parent="1" vertex="1">
          <mxGeometry x="565" y="176" width="70" height="30" as="geometry" />
        </mxCell>
        <mxCell id="pD6L-KKbO10ma1tO-84G-21" value="&lt;b&gt;&lt;font style=&quot;font-size: 18px;&quot;&gt;Page C&lt;/font&gt;&lt;/b&gt;" style="text;html=1;align=center;verticalAlign=middle;whiteSpace=wrap;rounded=0;" parent="1" vertex="1">
          <mxGeometry x="565" y="425" width="70" height="30" as="geometry" />
        </mxCell>
        <mxCell id="pD6L-KKbO10ma1tO-84G-22" value="&lt;b&gt;&lt;font style=&quot;font-size: 18px;&quot;&gt;Page D&lt;/font&gt;&lt;/b&gt;" style="text;html=1;align=center;verticalAlign=middle;whiteSpace=wrap;rounded=0;" parent="1" vertex="1">
          <mxGeometry x="265" y="425" width="70" height="30" as="geometry" />
        </mxCell>
        <mxCell id="pD6L-KKbO10ma1tO-84G-28" value="&lt;font style=&quot;font-size: 15px;&quot;&gt;1/3&lt;/font&gt;" style="text;html=1;align=center;verticalAlign=middle;whiteSpace=wrap;rounded=0;" parent="1" vertex="1">
          <mxGeometry x="425" y="130" width="60" height="30" as="geometry" />
        </mxCell>
        <mxCell id="pD6L-KKbO10ma1tO-84G-30" value="&lt;font style=&quot;font-size: 15px;&quot;&gt;1/3&lt;/font&gt;" style="text;html=1;align=center;verticalAlign=middle;whiteSpace=wrap;rounded=0;" parent="1" vertex="1">
          <mxGeometry x="250" y="280" width="60" height="30" as="geometry" />
        </mxCell>
        <mxCell id="pD6L-KKbO10ma1tO-84G-32" value="&lt;span style=&quot;font-size: 15px;&quot;&gt;1/3&lt;/span&gt;" style="text;html=1;align=center;verticalAlign=middle;whiteSpace=wrap;rounded=0;" parent="1" vertex="1">
          <mxGeometry x="410" y="206" width="60" height="30" as="geometry" />
        </mxCell>
        <mxCell id="pD6L-KKbO10ma1tO-84G-33" value="&lt;font style=&quot;font-size: 15px;&quot;&gt;1/3&lt;/font&gt;" style="text;html=1;align=center;verticalAlign=middle;whiteSpace=wrap;rounded=0;" parent="1" vertex="1">
          <mxGeometry x="590" y="290" width="60" height="30" as="geometry" />
        </mxCell>
        <mxCell id="pD6L-KKbO10ma1tO-84G-34" value="&lt;span style=&quot;font-size: 15px;&quot;&gt;1/3&lt;/span&gt;" style="text;html=1;align=center;verticalAlign=middle;whiteSpace=wrap;rounded=0;" parent="1" vertex="1">
          <mxGeometry x="425" y="260" width="60" height="30" as="geometry" />
        </mxCell>
        <mxCell id="pD6L-KKbO10ma1tO-84G-35" value="&lt;span style=&quot;font-size: 15px;&quot;&gt;1/3&lt;/span&gt;" style="text;html=1;align=center;verticalAlign=middle;whiteSpace=wrap;rounded=0;" parent="1" vertex="1">
          <mxGeometry x="470" y="360" width="60" height="30" as="geometry" />
        </mxCell>
        <mxCell id="pD6L-KKbO10ma1tO-84G-36" value="&lt;span style=&quot;font-size: 15px;&quot;&gt;0.5&lt;/span&gt;" style="text;html=1;align=center;verticalAlign=middle;whiteSpace=wrap;rounded=0;" parent="1" vertex="1">
          <mxGeometry x="490" y="280" width="60" height="30" as="geometry" />
        </mxCell>
        <mxCell id="pD6L-KKbO10ma1tO-84G-37" value="&lt;span style=&quot;font-size: 15px;&quot;&gt;0.5&lt;/span&gt;" style="text;html=1;align=center;verticalAlign=middle;whiteSpace=wrap;rounded=0;" parent="1" vertex="1">
          <mxGeometry x="430" y="410" width="60" height="30" as="geometry" />
        </mxCell>
        <mxCell id="pD6L-KKbO10ma1tO-84G-38" value="&lt;span style=&quot;font-size: 15px;&quot;&gt;1&lt;/span&gt;" style="text;html=1;align=center;verticalAlign=middle;whiteSpace=wrap;rounded=0;" parent="1" vertex="1">
          <mxGeometry x="440" y="470" width="60" height="30" as="geometry" />
        </mxCell>
      </root>
    </mxGraphModel>
  </diagram>
</mxfile>
